<svg width="44" height="44" viewBox="0 0 44 44" fill="none" xmlns="http://www.w3.org/2000/svg">
<path d="M24.695 13.5843L29.205 11.366C29.755 11.091 29.9017 10.376 29.48 9.93599C27.8483 8.13932 26.1983 6.63599 24.8783 5.49932C24.2733 4.98599 23.375 5.40765 23.375 6.19599V12.7593C23.375 13.4377 24.09 13.8777 24.695 13.5843Z" fill="#F04C23"/>
<path d="M23.375 36.1906V39.2156C23.375 39.7656 23.87 40.224 24.42 40.1323C29.425 39.3073 33.605 35.9523 35.585 31.4423C35.9333 30.6723 35.09 29.9023 34.32 30.269L23.8883 35.384C23.5767 35.5306 23.375 35.8423 23.375 36.1906Z" fill="#F04C23"/>
<path d="M20.6255 6.15933C20.6255 5.37099 19.7272 4.94933 19.1222 5.44433C14.7955 9.07433 7.11385 16.7193 7.15052 25.4827C7.15052 32.8527 12.5405 38.9577 19.5805 40.131C20.1305 40.2227 20.6255 39.7643 20.6255 39.2143V6.15933Z" fill="#F04C23"/>
<path d="M24.6408 22.8623L34.3391 18.7923C34.8341 18.5723 35.0724 18.004 34.8341 17.5273C34.1558 16.189 33.3674 14.8873 32.5058 13.6773C32.2491 13.3106 31.7724 13.2006 31.3691 13.384L23.8708 17.0323C23.5591 17.179 23.3574 17.509 23.3574 17.8573V22.019C23.3758 22.6606 24.0358 23.119 24.6408 22.8623Z" fill="#F04C23"/>
<path d="M36.355 26.235C36.6483 26.0883 36.8317 25.8133 36.8317 25.5016C36.8317 24.3283 36.685 23.1733 36.4283 22.0366C36.3 21.4866 35.695 21.1933 35.1817 21.4133L23.925 26.2166C23.595 26.3633 23.375 26.6933 23.375 27.06V31.0933C23.375 31.7716 24.09 32.2116 24.695 31.9183L35.5117 26.6566L36.355 26.235Z" fill="#F04C23"/>
</svg>
