<svg width="44" height="44" viewBox="0 0 44 44" fill="none" xmlns="http://www.w3.org/2000/svg">
<path d="M21.9993 3.66699C11.8793 3.66699 3.66602 11.8803 3.66602 22.0003C3.66602 32.1203 11.8793 40.3337 21.9993 40.3337C32.1194 40.3337 40.3327 32.1203 40.3327 22.0003C40.3327 11.8803 32.1194 3.66699 21.9993 3.66699ZM22.6043 31.167C22.2743 31.277 21.706 31.277 21.376 31.167C18.516 30.1953 12.0993 26.107 12.0993 19.177C12.0993 16.1153 14.556 13.6403 17.5993 13.6403C19.396 13.6403 20.991 14.502 21.9993 15.8587C22.9893 14.5203 24.6027 13.6403 26.3993 13.6403C29.4427 13.6403 31.8993 16.1153 31.8993 19.177C31.8993 26.107 25.4827 30.1953 22.6043 31.167Z" fill="#F04C23"/>
</svg>
