<svg width="44" height="44" viewBox="0 0 44 44" fill="none" xmlns="http://www.w3.org/2000/svg">
<g clip-path="url(#clip0_2231_345)">
<path d="M6.50781 12.631V24.9902C6.50781 28.1427 7.99145 31.1089 10.5187 32.9934C14.2071 35.7439 19.4745 39.6626 22 41.4989C24.5569 39.6564 29.8077 35.7406 33.48 32.9924C35.9972 31.1086 37.4728 28.1493 37.4728 25.0052V12.631C37.4728 0.999651 6.50781 0.499023 6.50781 12.631ZM28.3795 17.8193L20.4961 25.7026C20.2211 25.9776 19.8728 26.106 19.5245 26.106C19.1761 26.106 18.8278 25.9776 18.5528 25.7026L15.6195 22.7326C15.0878 22.201 15.0878 21.321 15.6195 20.7893C16.1511 20.2576 17.0311 20.2576 17.5628 20.7893L19.5428 22.7693L26.4545 15.8576C26.9861 15.326 27.8661 15.326 28.3978 15.8576C28.9295 16.3893 28.9295 17.2876 28.3795 17.8193Z" fill="#F04C23"/>
</g>
<defs>
<clipPath id="clip0_2231_345">
<rect width="44" height="44" fill="white"/>
</clipPath>
</defs>
</svg>
