<svg width="387" height="164" viewBox="0 0 387 164" fill="none" xmlns="http://www.w3.org/2000/svg">
<g clip-path="url(#clip0_1744_73)">
<path d="M380.099 83.4675L373.254 90.3266V97.2114H380.15L387 90.3524V83.4675H380.099Z" fill="#F04C23"/>
<path d="M100.032 83.4675L93.1873 90.3266V97.2114H100.083L106.933 90.3524V83.4675H100.032Z" fill="#F04C23"/>
<path d="M362.531 83.4675H359.179V125.678H362.531V83.4675Z" fill="white"/>
<path d="M369.412 107.361H369.103L369.288 107.613L382.828 125.678H387L373.285 107.423L373.239 107.361H373.161H369.412Z" fill="white"/>
<path d="M39.4246 111.208C36.6384 118.366 29.6084 123.175 21.914 123.175C11.5622 123.175 3.14161 114.761 3.14161 104.416C3.14161 94.0704 11.5622 85.6562 21.914 85.6562C29.4848 85.6562 36.4942 90.3937 39.3577 97.4381L39.4349 97.6338H42.7877L42.6435 97.2219C39.5637 88.4266 31.2307 82.5201 21.914 82.5201C9.83169 82.5201 0 92.3453 0 104.421C0 116.496 9.83169 126.321 21.914 126.321C31.3594 126.321 39.7182 120.302 42.7053 111.337L42.8444 110.93H39.4298V111.213L39.4246 111.208Z" fill="white"/>
<path d="M67.7043 83.4675L85.4931 105.754V125.678H89.1548V104.462L72.4013 83.4675H67.7043Z" fill="white"/>
<path d="M235.94 125.734L220.232 83.6736L220.155 83.4728H215.762L199.889 125.765H203.813L207.959 114.648H227.88L232.016 125.734H235.935H235.94ZM226.5 110.986H209.329L217.945 88.0455L226.5 110.986Z" fill="white"/>
<path d="M152.626 83.6684L152.548 83.4675H148.155L132.277 125.734H136.202L150.339 88.0454L164.368 125.528L164.44 125.734H168.365L152.626 83.6684Z" fill="white"/>
<path d="M300.487 125.116V83.4675H296.826V102.448H274.062V83.4675H270.395V125.116H274.062V106.11H296.826V125.116H300.487Z" fill="white"/>
<path d="M334.015 125.734H338.532L353.606 105.121L337.795 83.4675H333.248L349.053 105.121L334.015 125.734Z" fill="white"/>
<path d="M67.7043 163.799H68.9919V154.613H74.5489V163.799H75.8365V153.382H67.7043V163.799Z" fill="white"/>
<path d="M85.9462 161.508V153.382H84.6587V163.799H85.9462L91.39 155.673V163.799H92.6775V153.382H91.39L85.9462 161.508Z" fill="white"/>
<path d="M100.64 154.613H104.188V163.799H105.481V154.613H109.029V153.382H100.64V154.613Z" fill="white"/>
<path d="M121.287 153.181C119.783 153.181 118.537 153.701 117.682 154.685C116.858 155.637 116.42 156.986 116.42 158.593C116.42 160.2 116.858 161.549 117.682 162.502C118.537 163.485 119.783 164.005 121.287 164.005C122.791 164.005 124.037 163.485 124.892 162.502C125.716 161.549 126.154 160.2 126.154 158.593C126.154 156.986 125.716 155.637 124.892 154.69C124.037 153.706 122.791 153.186 121.287 153.186M121.287 162.769C120.159 162.769 119.278 162.378 118.671 161.616C118.099 160.895 117.795 159.85 117.795 158.593C117.81 157.332 118.114 156.286 118.681 155.57C119.289 154.803 120.164 154.417 121.287 154.417C122.41 154.417 123.295 154.808 123.903 155.57C124.475 156.291 124.779 157.337 124.779 158.593C124.779 159.85 124.475 160.895 123.903 161.616C123.29 162.383 122.41 162.769 121.287 162.769Z" fill="white"/>
<path d="M139.472 161.683L135.553 153.382H134.378V163.768H135.609V156.42L135.707 156.394L139.132 163.768H139.817L143.242 156.399L143.34 156.42V163.768H144.571V153.382H143.396L139.472 161.683Z" fill="white"/>
<path d="M160.181 157.96H154.711V153.382H153.424V163.799H154.711V159.19H160.181V163.799H161.468V153.382H160.181V157.96Z" fill="white"/>
<path d="M171.578 161.508V153.382H170.291V163.799H171.578L177.022 155.673V163.799H178.31V153.382H177.022L171.578 161.508Z" fill="white"/>
<path d="M194.605 153.382H193.003L188.394 158.305L188.388 153.382H187.132V163.799H188.388V160.076L189.449 158.933L193.322 163.768H194.981L190.309 157.991L194.605 153.382Z" fill="white"/>
<path d="M217.09 153.438C216.807 153.382 216.524 153.382 216.318 153.382H212.193V163.799H213.48V159.963H216.318C216.524 159.963 216.833 159.963 217.09 159.906C217.899 159.783 218.563 159.407 219.011 158.815C219.439 158.253 219.666 157.512 219.666 156.672C219.666 155.833 219.439 155.091 219.011 154.53C218.563 153.938 217.899 153.562 217.09 153.438ZM213.48 154.613H216.266C216.452 154.613 216.684 154.613 216.915 154.669C217.971 154.911 218.347 155.864 218.347 156.672C218.347 157.481 217.971 158.433 216.915 158.675C216.684 158.732 216.426 158.732 216.256 158.732H213.48V154.613Z" fill="white"/>
<path d="M230.234 153.408L226.742 163.825H228.086L228.915 161.394H233.355L234.184 163.825H235.528L232.031 153.408H230.229H230.234ZM229.317 160.164L231.12 154.752L232.953 160.159H229.317V160.164Z" fill="white"/>
<path d="M247.621 154.381C248.47 154.381 249.186 154.607 249.748 155.06C250.221 155.442 250.577 155.972 250.809 156.641L250.896 156.894L252.215 156.549L252.112 156.25C251.792 155.339 251.282 154.613 250.592 154.087C249.794 153.48 248.795 153.171 247.626 153.171C246.122 153.171 244.876 153.691 244.021 154.674C243.202 155.617 242.764 156.961 242.759 158.552C242.764 160.143 243.202 161.482 244.021 162.429C244.876 163.413 246.122 163.933 247.626 163.933C248.8 163.933 249.794 163.624 250.592 163.016C251.282 162.491 251.792 161.765 252.112 160.854L252.215 160.555L250.896 160.21L250.814 160.467C250.597 161.132 250.242 161.662 249.763 162.043C249.197 162.496 248.481 162.723 247.626 162.723C246.498 162.723 245.617 162.332 245.009 161.569C244.438 160.848 244.134 159.803 244.134 158.547C244.134 157.29 244.438 156.245 245.009 155.524C245.622 154.757 246.498 154.37 247.626 154.37" fill="white"/>
<path d="M259.703 154.613H263.257V163.799H264.544V154.613H268.098V153.382H259.703V154.613Z" fill="white"/>
<path d="M276.06 163.799H282.647V162.599H277.348V159.103H281.787V157.872H277.348V154.613H282.647V153.382H276.06V163.799Z" fill="white"/>
<path d="M297.938 157.96H292.468V153.382H291.181V163.799H292.468V159.19H297.938V163.799H299.225V153.382H297.938V157.96Z" fill="white"/>
<path d="M309.366 161.508V153.382H308.079V163.799H309.366L314.81 155.668V163.799H316.097V153.382H314.81L309.366 161.508Z" fill="white"/>
<path d="M326.207 161.508V153.382H324.92V163.799H326.207L331.646 155.673V163.799H332.939V153.382H331.646L326.207 161.508Z" fill="white"/>
<path d="M331.218 150.519H326.923V151.605H331.218V150.519Z" fill="white"/>
<path d="M193.5 -0.000855676L179.221 14.2764L193.5 28.5536L207.779 14.2764L193.5 -0.000855676Z" fill="#F04C23"/>
<path d="M213.372 28.0491L199.575 41.8754V55.7583H213.485L227.288 41.932V28.0491H213.372Z" fill="white"/>
<path d="M159.712 28.0491V41.932L173.515 55.7583H187.425V41.8754L173.623 28.0491H159.712Z" fill="white"/>
</g>
<defs>
<clipPath id="clip0_1744_73">
<rect width="387" height="164" fill="white"/>
</clipPath>
</defs>
</svg>
