<svg width="207" height="24" viewBox="0 0 207 24" fill="none" xmlns="http://www.w3.org/2000/svg">
<path d="M203.311 0.512207L199.652 4.18466V7.86607H203.343L207.002 4.19813V0.512207H203.311Z" fill="#F04C23"/>
<path d="M53.5072 0.512207L49.8438 4.18466V7.86607H53.5341L57.1976 4.19813V0.512207H53.5072Z" fill="#F04C23"/>
<path d="M193.915 0.512207H192.121V23.0952H193.915V0.512207Z" fill="white"/>
<path d="M197.596 13.2959H197.43L197.529 13.4308L204.77 23.0951H207L199.668 13.3274L199.641 13.2959H199.601H197.596Z" fill="white"/>
<path d="M21.0906 15.355C19.6028 19.1847 15.8404 21.7559 11.723 21.7559C6.18512 21.7559 1.68113 17.2563 1.68113 11.7185C1.68113 6.18062 6.18512 1.68113 11.723 1.68113C15.773 1.68113 19.5218 4.2163 21.0546 7.98313L21.0951 8.08653H22.8886L22.8122 7.86628C21.1625 3.16 16.708 0 11.723 0C5.25915 0 0 5.25467 0 11.714C0 18.1733 5.25915 23.428 11.723 23.428C16.7754 23.428 21.2435 20.2051 22.8437 15.4134L22.9156 15.1931H21.0906V15.346V15.355Z" fill="white"/>
<path d="M36.2148 0.512207L45.7308 12.4375V23.0952H47.6906V11.7453L38.7275 0.512207H36.2148Z" fill="white"/>
<path d="M126.202 23.1222L117.8 0.62011L117.76 0.512207H115.409L106.918 23.1356H109.017L111.238 17.1887H121.895L124.107 23.1177H126.206L126.202 23.1222ZM121.154 15.2334H111.97L116.578 2.962L121.154 15.2334Z" fill="white"/>
<path d="M81.6402 0.62011L81.5998 0.512207H79.2489L70.7578 23.1222H72.857L80.4176 2.962L87.9198 23.0143L87.9603 23.1222H90.0594L81.6402 0.62011Z" fill="white"/>
<path d="M160.729 22.794V0.512207H158.77V10.6665H146.593V0.512207H144.633V22.794H146.593V12.6263H158.77V22.794H160.729Z" fill="white"/>
<path d="M178.664 23.1222H181.077L189.141 12.0959L180.686 0.512207H178.25L186.705 12.0959L178.664 23.1222Z" fill="white"/>
</svg>
