<svg xmlns="http://www.w3.org/2000/svg" style="position: absolute; width: 0; height: 0; clip: rect(0 0 0 0);">
    <symbol id="logo-small" viewBox="0 0 42 42" fill="none" xmlns="http://www.w3.org/2000/svg">
        <rect x="20.9961" width="29.6925" height="29.6925" transform="rotate(45 20.9961 0)" fill="#2A2A2A"/>
        <path d="M20.8619 8.66632L16.7148 12.8174L20.8619 16.9684L25.0089 12.8174L20.8619 8.66632Z" fill="#F04C23"/>
        <path d="M26.3508 16.8218L22.3438 20.8417V24.8782H26.3837L30.3923 20.8582V16.8218H26.3508Z" fill="white"/>
        <path d="M11.332 16.8218V20.8582L15.3406 24.8782H19.3806V20.8417L15.372 16.8218H11.332Z" fill="white"/>
    </symbol>
    <symbol id="icon-tg" viewBox="0 0 29 24" fill="none" xmlns="http://www.w3.org/2000/svg">
        <path fill-rule="evenodd" clip-rule="evenodd" d="M2.66652 10.5037C10.1807 7.22993 15.1913 5.07165 17.6983 4.02887C24.8565 1.05154 26.3439 0.53435 27.3134 0.517272C27.5266 0.513516 28.0034 0.566359 28.3122 0.816948C28.573 1.02854 28.6447 1.31437 28.679 1.51498C28.7134 1.7156 28.7561 2.1726 28.7221 2.52969C28.3342 6.60543 26.6558 16.4962 25.8019 21.0611C25.4405 22.9926 24.7291 23.6403 24.0403 23.7037C22.5435 23.8414 21.4069 22.7145 19.9571 21.7641C17.6885 20.277 16.4069 19.3513 14.2048 17.9002C11.66 16.2232 13.3097 15.3014 14.76 13.7951C15.1396 13.4009 21.7347 7.4021 21.8623 6.85792C21.8783 6.78986 21.8931 6.53617 21.7424 6.40221C21.5917 6.26825 21.3692 6.31406 21.2087 6.35049C20.9812 6.40213 17.3571 8.79753 10.3364 13.5367C9.3077 14.2431 8.37594 14.5872 7.54112 14.5692C6.62079 14.5493 4.85046 14.0488 3.53439 13.621C1.92019 13.0963 0.637254 12.8189 0.748969 11.9278C0.807157 11.4636 1.44634 10.9889 2.66652 10.5037Z" fill="black"/>
    </symbol>
    <symbol id="icon-vk" viewBox="0 0 26 17" fill="none" xmlns="http://www.w3.org/2000/svg">
        <path d="M14.2626 16.5787C5.71758 16.5787 0.843706 10.7205 0.640625 0.972656H4.92095C5.06154 8.12736 8.21703 11.158 10.7165 11.7828V0.972656H14.747V7.1432C17.2152 6.87763 19.8081 4.06574 20.6829 0.972656H24.7134C24.0417 4.78433 21.2298 7.59622 19.2302 8.75222C21.2298 9.68952 24.4324 12.1421 25.6508 16.5787H21.2141C20.2612 13.6105 17.887 11.3142 14.747 11.0017V16.5787H14.2626Z" fill="black"/>
    </symbol>
    <symbol id="icon-rutube" viewBox="0 0 26 24" fill="none" xmlns="http://www.w3.org/2000/svg">
        <g clip-path="url(#clip0_2525_3340)">
            <path d="M23.8073 5.26182C25.0289 4.95634 25.7862 3.6562 25.4988 2.35788C25.2114 1.05956 23.9881 0.254693 22.7665 0.560168C21.545 0.865644 20.7877 2.16578 21.0751 3.46411C21.3625 4.76243 22.5858 5.56729 23.8073 5.26182Z" fill="black"/>
            <path fill-rule="evenodd" clip-rule="evenodd" d="M16.5367 5.06104H0.566406V23.9302H5.0116V17.7911H13.5292L17.4152 23.9302H22.3924L18.1074 17.7633C19.4383 17.5373 20.3965 16.9997 20.9819 16.1506C21.5673 15.3015 21.8604 13.9436 21.8604 12.1339V10.7193C21.8604 9.64419 21.7536 8.79605 21.5673 8.14501C21.3809 7.49397 21.0615 6.92854 20.6091 6.41986C20.1296 5.93904 19.5976 5.59959 18.9588 5.37361C18.32 5.17551 17.5211 5.06203 16.5367 5.06203V5.06104ZM15.8174 13.6331H5.0116V9.22012H15.8183C16.4308 9.22012 16.8561 9.3336 17.0696 9.5317C17.2822 9.7298 17.4152 10.0971 17.4152 10.6347V12.2185C17.4152 12.7839 17.2822 13.1522 17.0696 13.3503C16.857 13.5484 16.4308 13.6331 15.8183 13.6331H15.8174Z" fill="black"/>
        </g>
        <defs>
            <clipPath id="clip0_2525_3340">
                <rect width="24.9946" height="23.4324" fill="white" transform="translate(0.566406 0.497559)"/>
            </clipPath>
        </defs>
    </symbol>
    <symbol id="icon-youtube" viewBox="0 0 28 28" fill="none" xmlns="http://www.w3.org/2000/svg">
        <g clip-path="url(#clip0_2525_3346)">
            <path d="M26.6109 7.73277C26.4607 7.16779 26.1648 6.65215 25.7528 6.23746C25.3407 5.82277 24.827 5.52358 24.263 5.36982C22.1867 4.81152 13.8878 4.81152 13.8878 4.81152C13.8878 4.81152 5.58877 4.81152 3.51251 5.36982C2.94851 5.52358 2.43477 5.82277 2.02273 6.23746C1.61069 6.65215 1.31479 7.16779 1.16465 7.73277C0.609375 9.81808 0.609375 14.1667 0.609375 14.1667C0.609375 14.1667 0.609375 18.5154 1.16465 20.6007C1.31479 21.1657 1.61069 21.6813 2.02273 22.096C2.43477 22.5107 2.94851 22.8099 3.51251 22.9637C5.58877 23.522 13.8878 23.522 13.8878 23.522C13.8878 23.522 22.1867 23.522 24.263 22.9637C24.827 22.8099 25.3407 22.5107 25.7528 22.096C26.1648 21.6813 26.4607 21.1657 26.6109 20.6007C27.1661 18.5154 27.1661 14.1667 27.1661 14.1667C27.1661 14.1667 27.1661 9.81808 26.6109 7.73277Z" fill="black"/>
            <path d="M11.168 18.1154V10.2178L18.1089 14.1666L11.168 18.1154Z" fill="white"/>
        </g>
        <defs>
            <clipPath id="clip0_2525_3346">
                <rect width="26.5568" height="26.5568" fill="white" transform="translate(0.582031 0.888184)"/>
            </clipPath>
        </defs>
    </symbol>
    <symbol id="icon-dzen" viewBox="0 0 31 31" fill="none" xmlns="http://www.w3.org/2000/svg">
        <path d="M30.0639 15.9351V15.6171C23.4917 15.4051 20.4917 15.2461 18.0855 12.914C15.7534 10.5077 15.5838 7.50779 15.3824 0.935547H15.0643C14.8523 7.50779 14.6933 10.5077 12.3612 12.914C9.95496 15.2461 6.95505 15.4157 0.382812 15.6171V15.9351C6.95505 16.1471 9.95496 16.3061 12.3612 18.6382C14.6933 21.0445 14.8629 24.0444 15.0643 30.6166H15.3824C15.5944 24.0444 15.7534 21.0445 18.0855 18.6382C20.4917 16.3061 23.4917 16.1365 30.0639 15.9351Z" fill="black"/>
    </symbol>
    <symbol id="icon-route" viewBox="0 0 25 25" fill="none" xmlns="http://www.w3.org/2000/svg">
        <path d="M9.37807 5.10022C8.57807 1.64022 3.36807 1.63022 2.56807 5.10022C2.09807 7.13022 3.38807 8.85022 4.50807 9.92022C5.32807 10.6902 6.61807 10.6902 7.43807 9.92022C8.55807 8.85022 9.83807 7.13022 9.37807 5.10022ZM6.00807 6.70022C5.45807 6.70022 5.00807 6.25022 5.00807 5.70022C5.00807 5.15022 5.44807 4.70022 5.99807 4.70022H6.00807C6.56807 4.70022 7.00807 5.15022 7.00807 5.70022C7.00807 6.25022 6.56807 6.70022 6.00807 6.70022Z" fill="white"/>
        <path d="M22.4119 17.1002C21.6119 13.6402 16.3819 13.6302 15.5719 17.1002C15.1019 19.1302 16.3919 20.8502 17.5219 21.9202C18.3419 22.6902 19.6419 22.6902 20.4619 21.9202C21.5919 20.8502 22.8819 19.1302 22.4119 17.1002ZM19.0319 18.7002C18.4819 18.7002 18.0319 18.2502 18.0319 17.7002C18.0319 17.1502 18.4719 16.7002 19.0219 16.7002H19.0319C19.5819 16.7002 20.0319 17.1502 20.0319 17.7002C20.0319 18.2502 19.5819 18.7002 19.0319 18.7002Z" fill="white"/>
        <path d="M12.5014 20.25H9.82141C8.66141 20.25 7.65141 19.55 7.25141 18.47C6.84141 17.39 7.14141 16.2 8.01141 15.43L16.0014 8.44C16.4814 8.02 16.4914 7.45 16.3514 7.06C16.2014 6.67 15.8214 6.25 15.1814 6.25H12.5014C12.0914 6.25 11.7514 5.91 11.7514 5.5C11.7514 5.09 12.0914 4.75 12.5014 4.75H15.1814C16.3414 4.75 17.3514 5.45 17.7514 6.53C18.1614 7.61 17.8614 8.8 16.9914 9.57L9.00141 16.56C8.52141 16.98 8.51141 17.55 8.65141 17.94C8.80141 18.33 9.18141 18.75 9.82141 18.75H12.5014C12.9114 18.75 13.2514 19.09 13.2514 19.5C13.2514 19.91 12.9114 20.25 12.5014 20.25Z" fill="white"/>
    </symbol>
    <symbol id="icon-news-prev-arrow" viewBox="0 0 64 8" fill="none" xmlns="http://www.w3.org/2000/svg">
        <path d="M0.146446 4.03519C-0.0488167 3.83993 -0.0488167 3.52335 0.146446 3.32809L3.32843 0.146107C3.52369 -0.0491555 3.84027 -0.0491555 4.03553 0.146107C4.2308 0.341369 4.2308 0.657951 4.03553 0.853214L1.20711 3.68164L4.03553 6.51007C4.2308 6.70533 4.2308 7.02191 4.03553 7.21717C3.84027 7.41244 3.52369 7.41244 3.32843 7.21717L0.146446 4.03519ZM63.5 3.68164V4.18164H0.5V3.68164V3.18164H63.5V3.68164Z"/>
    </symbol>
    <symbol id="icon-news-next-arrow" viewBox="0 0 64 8" fill="none" xmlns="http://www.w3.org/2000/svg">
        <path d="M63.3536 4.03519C63.5488 3.83993 63.5488 3.52335 63.3536 3.32809L60.1716 0.146107C59.9763 -0.0491555 59.6597 -0.0491555 59.4645 0.146107C59.2692 0.341369 59.2692 0.657951 59.4645 0.853214L62.2929 3.68164L59.4645 6.51007C59.2692 6.70533 59.2692 7.02191 59.4645 7.21717C59.6597 7.41244 59.9763 7.41244 60.1716 7.21717L63.3536 4.03519ZM0 3.68164V4.18164H63V3.68164V3.18164H0V3.68164Z"/>
    </symbol>
    <symbol id="icon-pdf-logo" viewBox="0 0 24 24" fill="none" xmlns="http://www.w3.org/2000/svg">
        <g clip-path="url(#clip0_3661_5858)">
            <path fill-rule="evenodd" clip-rule="evenodd" d="M5.81521 0H14.3984L21.5984 7.2V20.8755C21.5984 22.6027 20.1037 24 18.2626 24H5.74063C3.89312 24 2.39844 22.6027 2.39844 20.8755V3.1244C2.39841 1.39727 3.96767 0 5.81521 0Z" fill="#F04C23"/>
            <path d="M14.4138 4.896V0L21.5984 7.2H16.8087C14.6533 7.2 14.314 5.664 14.4138 4.896Z" fill="white" fill-opacity="0.3"/>
            <path d="M6.94943 19.2002V15.1911H8.53114C8.83521 15.1911 9.09427 15.2492 9.30829 15.3653C9.52232 15.4802 9.68545 15.64 9.79768 15.8449C9.91122 16.0485 9.96799 16.2834 9.96799 16.5497C9.96799 16.8159 9.91057 17.0508 9.79573 17.2544C9.68088 17.458 9.51449 17.6165 9.29655 17.7301C9.07991 17.8436 8.8176 17.9004 8.50961 17.9004H7.50146V17.2211H8.37258C8.53571 17.2211 8.67013 17.193 8.77584 17.1369C8.88285 17.0795 8.96246 17.0005 9.01466 16.9001C9.06816 16.7983 9.09492 16.6815 9.09492 16.5497C9.09492 16.4165 9.06816 16.3004 9.01466 16.2012C8.96246 16.1007 8.88285 16.0231 8.77584 15.9683C8.66882 15.9121 8.5331 15.8841 8.36866 15.8841H7.79705V19.2002H6.94943ZM11.9397 19.2002H10.5186V15.1911H11.9515C12.3548 15.1911 12.7019 15.2714 12.9929 15.4319C13.2839 15.5911 13.5078 15.8201 13.6644 16.119C13.8223 16.4178 13.9012 16.7754 13.9012 17.1917C13.9012 17.6093 13.8223 17.9682 13.6644 18.2684C13.5078 18.5686 13.2826 18.7989 12.989 18.9594C12.6967 19.1199 12.3469 19.2002 11.9397 19.2002ZM11.3662 18.4739H11.9045C12.1551 18.4739 12.3658 18.4296 12.5368 18.3408C12.7091 18.2508 12.8383 18.1118 12.9244 17.9239C13.0118 17.7346 13.0556 17.4906 13.0556 17.1917C13.0556 16.8955 13.0118 16.6534 12.9244 16.4655C12.8383 16.2776 12.7097 16.1392 12.5388 16.0505C12.3678 15.9617 12.157 15.9174 11.9065 15.9174H11.3662V18.4739ZM14.5291 19.2002V15.1911H17.1836V15.89H15.3767V16.8452H17.0074V17.5441H15.3767V19.2002H14.5291Z" fill="white"/>
        </g>
        <defs>
            <clipPath id="clip0_3661_5858">
                <rect width="24" height="24" fill="white"/>
            </clipPath>
        </defs>
    </symbol>
    <symbol id="icon-play" viewBox="0 0 18 28" fill="none" xmlns="http://www.w3.org/2000/svg">
        <path d="M0 27.559V0L17.6471 13.6345L0 27.559Z" fill="white"/>
    </symbol>
    <symbol id="icon-flash" viewBox="0 0 15 20" fill="none" xmlns="http://www.w3.org/2000/svg">
        <path d="M13.1859 8.72087H10.0959V1.52087C10.0959 -0.159126 9.18589 -0.499126 8.07589 0.760874L7.27589 1.67087L0.50589 9.37087C-0.42411 10.4209 -0.0341096 11.2809 1.36589 11.2809H4.45589V18.4809C4.45589 20.1609 5.36589 20.5009 6.47589 19.2409L7.27589 18.3309L14.0459 10.6309C14.9759 9.58087 14.5859 8.72087 13.1859 8.72087Z" fill="white"/>
    </symbol>
    <symbol id="icon-about-us-addvantage-1" viewBox="0 0 68 68" fill="none" xmlns="http://www.w3.org/2000/svg">
        <path d="M25.4665 17.0827C25.754 16.9461 26.0503 17.183 26.0503 17.5013V45.2573C26.0503 45.4806 25.9007 45.6732 25.6931 45.7552C25.5564 45.8093 25.4292 45.8693 25.3079 45.9355L20.5929 48.624C17.3024 50.51 14.5938 48.9451 14.5938 45.1329V25.6106C14.5938 24.3466 15.4966 22.7816 16.6202 22.1396L25.3079 17.1637C25.3596 17.1355 25.4124 17.1084 25.4665 17.0827Z" fill="#F04C23"/>
        <path d="M39.818 22.3816C39.9883 22.466 40.0961 22.6396 40.0961 22.8297V50.3335C40.0961 50.7019 39.711 50.9438 39.3791 50.7839L29.8455 46.1908C29.6725 46.1074 29.5625 45.9323 29.5625 45.7403V18.1083C29.5625 17.7374 29.9521 17.4957 30.2844 17.6602L39.818 22.3816Z" fill="#F04C23"/>
        <path d="M54.1391 23.0212V42.5434C54.1391 43.8074 53.2362 45.3724 52.1126 46.0145L44.3541 50.461C44.0208 50.652 43.6055 50.4114 43.6055 50.0272V22.4086C43.6055 22.2291 43.7017 22.0633 43.8576 21.9744L48.1399 19.53C51.4304 17.644 54.1391 19.209 54.1391 23.0212Z" fill="#F04C23"/>
        <rect x="1" y="1" width="66" height="66" rx="4" stroke="#F04C23" stroke-width="2"/>
        <path d="M54 14.1923L61.1923 7" stroke="#F04C23" stroke-width="2"/>
        <path d="M54.6523 7H61.1908V13.5385" stroke="#F04C23" stroke-width="2"/>
        <path d="M14.1914 53.9991L6.9991 61.1914" stroke="#F04C23" stroke-width="2"/>
        <path d="M13.5391 61.1914L7.0006 61.1914L7.0006 54.6529" stroke="#F04C23" stroke-width="2"/>
    </symbol>
    <symbol id="icon-about-us-addvantage-2" viewBox="0 0 70 70" fill="none" xmlns="http://www.w3.org/2000/svg">
        <rect x="1" y="13" width="56" height="56" rx="4" stroke="#F04C23" stroke-width="2"/>
        <path d="M11 7H59C61.2091 7 63 8.79086 63 11V59C63 61.2091 61.2091 63 59 63H11C8.79086 63 7 61.2091 7 59V11C7 8.79086 8.79086 7 11 7Z" fill="white" stroke="#F04C23" stroke-width="2"/>
        <rect x="13" y="1" width="56" height="56" rx="4" fill="white" stroke="#F04C23" stroke-width="2"/>
        <path d="M47.6028 25.9288H34.3978C32.5294 25.9288 31.8803 24.678 32.9728 23.158L39.5753 13.9113C40.3511 12.803 41.6494 12.803 42.4253 13.9113L49.0278 23.158C50.1203 24.678 49.4711 25.9288 47.6028 25.9288Z" fill="#F04C23"/>
        <path d="M49.8546 38.4994H32.1529C29.6513 38.4994 28.7963 36.8369 30.2688 34.8102L36.5863 25.9277H45.4213L51.7388 34.8102C53.2113 36.8369 52.3563 38.4994 49.8546 38.4994Z" fill="#F04C23"/>
        <path d="M42.1875 38.5V44.8333C42.1875 45.4825 41.6492 46.0208 41 46.0208C40.3508 46.0208 39.8125 45.4825 39.8125 44.8333V38.5H42.1875Z" fill="#F04C23"/>
    </symbol>
    <symbol id="icon-about-us-addvantage-3" viewBox="0 0 68 68" fill="none" xmlns="http://www.w3.org/2000/svg">
        <rect x="1" y="1" width="66" height="66" rx="4" stroke="#F04C23" stroke-width="2"/>
        <path d="M42.3714 32.1866H37.9939V21.9866C37.9939 19.6066 36.7048 19.1249 35.1323 20.9099L33.9989 22.1991L24.4081 33.1074C23.0906 34.5949 23.6431 35.8133 25.6264 35.8133H30.0039V46.0133C30.0039 48.3933 31.2931 48.8749 32.8656 47.0899L33.9989 45.8008L43.5898 34.8924C44.9073 33.4049 44.3547 32.1866 42.3714 32.1866Z" fill="#F04C23"/>
        <path d="M11.5 23.5V14C11.5 12.8954 12.3954 12 13.5 12H22.5" stroke="#F04C23" stroke-width="2"/>
        <path d="M56 23.5V14C56 12.8954 55.1046 12 54 12H45" stroke="#F04C23" stroke-width="2"/>
        <path d="M11 44.5V54C11 55.1046 11.8954 56 13 56H22" stroke="#F04C23" stroke-width="2"/>
        <path d="M56.5 44.5V54C56.5 55.1046 55.6046 56 54.5 56H45.5" stroke="#F04C23" stroke-width="2"/>
    </symbol>
    <symbol id="icon-about-us-addvantage-4" viewBox="0 0 68 68" fill="none" xmlns="http://www.w3.org/2000/svg">
        <rect x="1" y="1" width="66" height="66" rx="4" stroke="#F04C23" stroke-width="2"/>
        <path d="M45 24.2745V42.1095C45 43.5645 43.815 44.8995 42.36 45.0795L41.895 45.1395C39.435 45.4695 35.97 46.4895 33.18 47.6595C32.205 48.0645 31.125 47.3295 31.125 46.2645V25.3995C31.125 24.8445 31.44 24.3345 31.935 24.0645C34.68 22.5795 38.835 21.2595 41.655 21.0195H41.745C43.545 21.0195 45 22.4745 45 24.2745Z" fill="#F04C23"/>
        <path d="M28.0644 24.0645C25.3194 22.5795 21.1644 21.2595 18.3444 21.0195H18.2394C16.4394 21.0195 14.9844 22.4745 14.9844 24.2745V42.1095C14.9844 43.5645 16.1694 44.8995 17.6244 45.0795L18.0894 45.1395C20.5494 45.4695 24.0144 46.4895 26.8044 47.6595C27.7794 48.0645 28.8594 47.3295 28.8594 46.2645V25.3995C28.8594 24.8295 28.5594 24.3345 28.0644 24.0645ZM19.4994 28.6095H22.8744C23.4894 28.6095 23.9994 29.1195 23.9994 29.7345C23.9994 30.3645 23.4894 30.8595 22.8744 30.8595H19.4994C18.8844 30.8595 18.3744 30.3645 18.3744 29.7345C18.3744 29.1195 18.8844 28.6095 19.4994 28.6095ZM23.9994 35.3595H19.4994C18.8844 35.3595 18.3744 34.8645 18.3744 34.2345C18.3744 33.6195 18.8844 33.1095 19.4994 33.1095H23.9994C24.6144 33.1095 25.1244 33.6195 25.1244 34.2345C25.1244 34.8645 24.6144 35.3595 23.9994 35.3595Z" fill="#F04C23"/>
        <path d="M49 21V42" stroke="#F04C23" stroke-width="2" stroke-linecap="round"/>
        <path d="M54 21V42" stroke="#F04C23" stroke-width="2" stroke-linecap="round"/>
    </symbol>
    <symbol id="icon-about-us-addvantage-5" viewBox="0 0 68 68" fill="none" xmlns="http://www.w3.org/2000/svg">
        <rect x="1" y="1" width="66" height="66" rx="4" stroke="#F04C23" stroke-width="2"/>
        <path d="M18.1951 46.6456C15.8616 46.6456 13.9702 48.5158 13.9702 50.8231C13.9702 53.1305 15.8616 55.0007 18.1951 55.0007C20.5286 55.0007 22.42 53.1305 22.42 50.8231C22.42 48.5158 20.5286 46.6456 18.1951 46.6456ZM18.1951 53.3297C16.7971 53.3297 15.6601 52.2054 15.6601 50.8231C15.6601 49.4409 16.7971 48.3166 18.1951 48.3166C19.593 48.3166 20.73 49.4409 20.73 50.8231C20.73 52.2054 19.593 53.3297 18.1951 53.3297ZM49.1226 46.6456C46.7891 46.6456 44.8977 48.5158 44.8977 50.8231C44.8977 53.1305 46.7891 55.0007 49.1226 55.0007C51.4561 55.0007 53.3475 53.1305 53.3475 50.8231C53.3475 48.5158 51.4561 46.6456 49.1226 46.6456ZM49.1226 53.3297C47.7247 53.3297 46.5877 52.2054 46.5877 50.8231C46.5877 49.4409 47.7247 48.3166 49.1226 48.3166C50.5206 48.3166 51.6576 49.4409 51.6576 50.8231C51.6576 52.2054 50.5206 53.3297 49.1226 53.3297ZM61.9622 43.2855C61.9575 42.8263 61.8365 42.3778 61.6094 41.9768L57.5231 34.7473C57.2506 34.2847 56.7497 34 56.2083 34H29.5482C25.0536 34 20.2048 38.9469 18.5236 39.2183C13.3936 39.8887 9.60872 40.162 8.84283 40.906C6.82029 42.9219 6.85071 47.2351 7.14747 48.6481C7.34756 49.6006 8.22634 50.265 9.20989 50.265H12.6398C12.6277 50.118 12.6168 49.9696 12.6168 49.8192C12.6168 46.7786 15.1187 44.9739 18.1937 44.9739C21.2688 44.9739 23.7706 46.7793 23.7706 49.8192C23.7706 49.9696 23.7597 50.1173 23.7476 50.265H43.5674C43.5552 50.118 43.5444 49.9696 43.5444 49.8192C43.5444 46.7786 46.0462 44.9739 49.1213 44.9739C52.1963 44.9739 54.6981 46.7793 54.6981 49.8192C54.6981 49.9696 54.6873 50.1173 54.6752 50.265L60.3859 49.5959C61.0618 49.5959 61.9987 48.4717 61.9987 47.5566C61.9987 46.9544 61.9737 44.5053 61.9609 43.2848L61.9622 43.2855ZM33.6507 40.0377C33.6426 40.2376 33.477 40.3953 33.2749 40.3953H21.7129C21.07 40.3953 20.8165 39.5745 21.3485 39.2183C21.5723 39.0685 21.8062 38.9088 22.0522 38.741C24.1572 37.3046 27.0403 35.3375 29.5482 35.3375H33.4446C33.6582 35.3375 33.8285 35.5133 33.8204 35.7238L33.6507 40.0377ZM43.9297 40.3946H35.5205C35.315 40.3946 35.1474 40.2309 35.1447 40.0277L35.0865 35.7138C35.0838 35.5066 35.2528 35.3368 35.4624 35.3368H43.7648C43.9669 35.3368 44.1332 35.4946 44.1406 35.6944L44.3056 40.0083C44.3137 40.2189 44.1433 40.394 43.9297 40.394V40.3946ZM56.0271 40.3946H47.1927C46.998 40.3946 46.8351 40.2476 46.8182 40.0558L46.4309 35.7399C46.4113 35.5233 46.5809 35.3361 46.8006 35.3348C48.1965 35.3261 52.802 35.3348 54.0255 35.3368C54.2121 35.3368 54.3818 35.4377 54.4717 35.6002L56.5963 39.4375C56.839 39.8666 56.5253 40.3953 56.0278 40.3953L56.0271 40.3946Z" fill="#F04C23"/>
        <path d="M14 41V20C14 17.2386 16.2386 15 19 15H49C51.7614 15 54 17.2386 54 20V34" stroke="#F04C23" stroke-width="2" stroke-linecap="round"/>
        <path d="M34 15V42" stroke="#F04C23" stroke-width="2" stroke-linecap="round"/>
    </symbol>
    <symbol id="icon-about-us-addvantage-6" viewBox="0 0 68 68" fill="none" xmlns="http://www.w3.org/2000/svg">
        <rect x="1" y="1" width="66" height="66" rx="4" stroke="#F04C23" stroke-width="2"/>
        <path d="M44.9013 20.8677L35.7346 17.4344C34.7846 17.0844 33.2346 17.0844 32.2846 17.4344L23.118 20.8677C21.3513 21.5344 19.918 23.601 19.918 25.4844V38.9844C19.918 40.3344 20.8013 42.1177 21.8846 42.9177L31.0513 49.7677C32.668 50.9844 35.318 50.9844 36.9346 49.7677L46.1013 42.9177C47.1846 42.101 48.068 40.3344 48.068 38.9844V25.4844C48.0846 23.601 46.6513 21.5344 44.9013 20.8677ZM39.8013 30.201L32.6346 37.3677C32.3846 37.6177 32.068 37.7344 31.7513 37.7344C31.4346 37.7344 31.118 37.6177 30.868 37.3677L28.2013 34.6677C27.718 34.1844 27.718 33.3844 28.2013 32.901C28.6846 32.4177 29.4846 32.4177 29.968 32.901L31.768 34.701L38.0513 28.4177C38.5346 27.9344 39.3346 27.9344 39.818 28.4177C40.3013 28.901 40.3013 29.7177 39.8013 30.201Z" fill="#F04C23"/>
        <path d="M34.0234 11C34.8319 11 35.5914 11.115 36.1211 11.3105V11.3115L49.1465 16.2295C50.1614 16.6207 51.1395 17.4479 51.8652 18.5107C52.5918 19.575 53.0096 20.7937 53 21.8984V41.2461C53 42.0177 52.7428 42.9805 52.2842 43.9053C51.8256 44.83 51.2146 45.6172 50.6006 46.084L37.5781 55.8945L37.5752 55.8965C36.6302 56.6133 35.3376 57 34 57C32.6624 57 31.3699 56.6133 30.4248 55.8965L30.4219 55.8945L17.3965 46.082L17.3916 46.0781C16.7847 45.6263 16.1761 44.8438 15.7168 43.915C15.2581 42.9874 15 42.0184 15 41.2461V21.9072C15.0001 20.7991 15.4241 19.5783 16.1562 18.5137C16.8881 17.4496 17.8727 16.6211 18.9004 16.2295L31.9209 11.3135C32.4508 11.1167 33.2123 11 34.0234 11Z" stroke="#F04C23" stroke-width="2"/>
    </symbol >


</svg>
