<svg xmlns="http://www.w3.org/2000/svg" style="position: absolute; width: 0; height: 0; clip: rect(0 0 0 0);">
    <symbol id="logo-small" viewBox="0 0 42 42" fill="none" xmlns="http://www.w3.org/2000/svg">
        <rect x="20.9961" width="29.6925" height="29.6925" transform="rotate(45 20.9961 0)" fill="#2A2A2A"/>
        <path d="M20.8619 8.66632L16.7148 12.8174L20.8619 16.9684L25.0089 12.8174L20.8619 8.66632Z" fill="#F04C23"/>
        <path d="M26.3508 16.8218L22.3438 20.8417V24.8782H26.3837L30.3923 20.8582V16.8218H26.3508Z" fill="white"/>
        <path d="M11.332 16.8218V20.8582L15.3406 24.8782H19.3806V20.8417L15.372 16.8218H11.332Z" fill="white"/>
    </symbol>
    <symbol id="icon-tg" viewBox="0 0 29 24" fill="none" xmlns="http://www.w3.org/2000/svg">
        <path fill-rule="evenodd" clip-rule="evenodd" d="M2.66652 10.5037C10.1807 7.22993 15.1913 5.07165 17.6983 4.02887C24.8565 1.05154 26.3439 0.53435 27.3134 0.517272C27.5266 0.513516 28.0034 0.566359 28.3122 0.816948C28.573 1.02854 28.6447 1.31437 28.679 1.51498C28.7134 1.7156 28.7561 2.1726 28.7221 2.52969C28.3342 6.60543 26.6558 16.4962 25.8019 21.0611C25.4405 22.9926 24.7291 23.6403 24.0403 23.7037C22.5435 23.8414 21.4069 22.7145 19.9571 21.7641C17.6885 20.277 16.4069 19.3513 14.2048 17.9002C11.66 16.2232 13.3097 15.3014 14.76 13.7951C15.1396 13.4009 21.7347 7.4021 21.8623 6.85792C21.8783 6.78986 21.8931 6.53617 21.7424 6.40221C21.5917 6.26825 21.3692 6.31406 21.2087 6.35049C20.9812 6.40213 17.3571 8.79753 10.3364 13.5367C9.3077 14.2431 8.37594 14.5872 7.54112 14.5692C6.62079 14.5493 4.85046 14.0488 3.53439 13.621C1.92019 13.0963 0.637254 12.8189 0.748969 11.9278C0.807157 11.4636 1.44634 10.9889 2.66652 10.5037Z" fill="black"/>
    </symbol>
    <symbol id="icon-vk" viewBox="0 0 26 17" fill="none" xmlns="http://www.w3.org/2000/svg">
        <path d="M14.2626 16.5787C5.71758 16.5787 0.843706 10.7205 0.640625 0.972656H4.92095C5.06154 8.12736 8.21703 11.158 10.7165 11.7828V0.972656H14.747V7.1432C17.2152 6.87763 19.8081 4.06574 20.6829 0.972656H24.7134C24.0417 4.78433 21.2298 7.59622 19.2302 8.75222C21.2298 9.68952 24.4324 12.1421 25.6508 16.5787H21.2141C20.2612 13.6105 17.887 11.3142 14.747 11.0017V16.5787H14.2626Z" fill="black"/>
    </symbol>
    <symbol id="icon-rutube" viewBox="0 0 26 24" fill="none" xmlns="http://www.w3.org/2000/svg">
        <g clip-path="url(#clip0_2525_3340)">
            <path d="M23.8073 5.26182C25.0289 4.95634 25.7862 3.6562 25.4988 2.35788C25.2114 1.05956 23.9881 0.254693 22.7665 0.560168C21.545 0.865644 20.7877 2.16578 21.0751 3.46411C21.3625 4.76243 22.5858 5.56729 23.8073 5.26182Z" fill="black"/>
            <path fill-rule="evenodd" clip-rule="evenodd" d="M16.5367 5.06104H0.566406V23.9302H5.0116V17.7911H13.5292L17.4152 23.9302H22.3924L18.1074 17.7633C19.4383 17.5373 20.3965 16.9997 20.9819 16.1506C21.5673 15.3015 21.8604 13.9436 21.8604 12.1339V10.7193C21.8604 9.64419 21.7536 8.79605 21.5673 8.14501C21.3809 7.49397 21.0615 6.92854 20.6091 6.41986C20.1296 5.93904 19.5976 5.59959 18.9588 5.37361C18.32 5.17551 17.5211 5.06203 16.5367 5.06203V5.06104ZM15.8174 13.6331H5.0116V9.22012H15.8183C16.4308 9.22012 16.8561 9.3336 17.0696 9.5317C17.2822 9.7298 17.4152 10.0971 17.4152 10.6347V12.2185C17.4152 12.7839 17.2822 13.1522 17.0696 13.3503C16.857 13.5484 16.4308 13.6331 15.8183 13.6331H15.8174Z" fill="black"/>
        </g>
        <defs>
            <clipPath id="clip0_2525_3340">
                <rect width="24.9946" height="23.4324" fill="white" transform="translate(0.566406 0.497559)"/>
            </clipPath>
        </defs>
    </symbol>
    <symbol id="icon-youtube" viewBox="0 0 28 28" fill="none" xmlns="http://www.w3.org/2000/svg">
        <g clip-path="url(#clip0_2525_3346)">
            <path d="M26.6109 7.73277C26.4607 7.16779 26.1648 6.65215 25.7528 6.23746C25.3407 5.82277 24.827 5.52358 24.263 5.36982C22.1867 4.81152 13.8878 4.81152 13.8878 4.81152C13.8878 4.81152 5.58877 4.81152 3.51251 5.36982C2.94851 5.52358 2.43477 5.82277 2.02273 6.23746C1.61069 6.65215 1.31479 7.16779 1.16465 7.73277C0.609375 9.81808 0.609375 14.1667 0.609375 14.1667C0.609375 14.1667 0.609375 18.5154 1.16465 20.6007C1.31479 21.1657 1.61069 21.6813 2.02273 22.096C2.43477 22.5107 2.94851 22.8099 3.51251 22.9637C5.58877 23.522 13.8878 23.522 13.8878 23.522C13.8878 23.522 22.1867 23.522 24.263 22.9637C24.827 22.8099 25.3407 22.5107 25.7528 22.096C26.1648 21.6813 26.4607 21.1657 26.6109 20.6007C27.1661 18.5154 27.1661 14.1667 27.1661 14.1667C27.1661 14.1667 27.1661 9.81808 26.6109 7.73277Z" fill="black"/>
            <path d="M11.168 18.1154V10.2178L18.1089 14.1666L11.168 18.1154Z" fill="white"/>
        </g>
        <defs>
            <clipPath id="clip0_2525_3346">
                <rect width="26.5568" height="26.5568" fill="white" transform="translate(0.582031 0.888184)"/>
            </clipPath>
        </defs>
    </symbol>
    <symbol id="icon-dzen" viewBox="0 0 31 31" fill="none" xmlns="http://www.w3.org/2000/svg">
        <path d="M30.0639 15.9351V15.6171C23.4917 15.4051 20.4917 15.2461 18.0855 12.914C15.7534 10.5077 15.5838 7.50779 15.3824 0.935547H15.0643C14.8523 7.50779 14.6933 10.5077 12.3612 12.914C9.95496 15.2461 6.95505 15.4157 0.382812 15.6171V15.9351C6.95505 16.1471 9.95496 16.3061 12.3612 18.6382C14.6933 21.0445 14.8629 24.0444 15.0643 30.6166H15.3824C15.5944 24.0444 15.7534 21.0445 18.0855 18.6382C20.4917 16.3061 23.4917 16.1365 30.0639 15.9351Z" fill="black"/>
    </symbol>
    <symbol id="icon-route" viewBox="0 0 25 25" fill="none" xmlns="http://www.w3.org/2000/svg">
        <path d="M9.37807 5.10022C8.57807 1.64022 3.36807 1.63022 2.56807 5.10022C2.09807 7.13022 3.38807 8.85022 4.50807 9.92022C5.32807 10.6902 6.61807 10.6902 7.43807 9.92022C8.55807 8.85022 9.83807 7.13022 9.37807 5.10022ZM6.00807 6.70022C5.45807 6.70022 5.00807 6.25022 5.00807 5.70022C5.00807 5.15022 5.44807 4.70022 5.99807 4.70022H6.00807C6.56807 4.70022 7.00807 5.15022 7.00807 5.70022C7.00807 6.25022 6.56807 6.70022 6.00807 6.70022Z" fill="white"/>
        <path d="M22.4119 17.1002C21.6119 13.6402 16.3819 13.6302 15.5719 17.1002C15.1019 19.1302 16.3919 20.8502 17.5219 21.9202C18.3419 22.6902 19.6419 22.6902 20.4619 21.9202C21.5919 20.8502 22.8819 19.1302 22.4119 17.1002ZM19.0319 18.7002C18.4819 18.7002 18.0319 18.2502 18.0319 17.7002C18.0319 17.1502 18.4719 16.7002 19.0219 16.7002H19.0319C19.5819 16.7002 20.0319 17.1502 20.0319 17.7002C20.0319 18.2502 19.5819 18.7002 19.0319 18.7002Z" fill="white"/>
        <path d="M12.5014 20.25H9.82141C8.66141 20.25 7.65141 19.55 7.25141 18.47C6.84141 17.39 7.14141 16.2 8.01141 15.43L16.0014 8.44C16.4814 8.02 16.4914 7.45 16.3514 7.06C16.2014 6.67 15.8214 6.25 15.1814 6.25H12.5014C12.0914 6.25 11.7514 5.91 11.7514 5.5C11.7514 5.09 12.0914 4.75 12.5014 4.75H15.1814C16.3414 4.75 17.3514 5.45 17.7514 6.53C18.1614 7.61 17.8614 8.8 16.9914 9.57L9.00141 16.56C8.52141 16.98 8.51141 17.55 8.65141 17.94C8.80141 18.33 9.18141 18.75 9.82141 18.75H12.5014C12.9114 18.75 13.2514 19.09 13.2514 19.5C13.2514 19.91 12.9114 20.25 12.5014 20.25Z" fill="white"/>
    </symbol>
    <symbol id="icon-news-prev-arrow" viewBox="0 0 64 8" fill="none" xmlns="http://www.w3.org/2000/svg">
        <path d="M0.146446 4.03519C-0.0488167 3.83993 -0.0488167 3.52335 0.146446 3.32809L3.32843 0.146107C3.52369 -0.0491555 3.84027 -0.0491555 4.03553 0.146107C4.2308 0.341369 4.2308 0.657951 4.03553 0.853214L1.20711 3.68164L4.03553 6.51007C4.2308 6.70533 4.2308 7.02191 4.03553 7.21717C3.84027 7.41244 3.52369 7.41244 3.32843 7.21717L0.146446 4.03519ZM63.5 3.68164V4.18164H0.5V3.68164V3.18164H63.5V3.68164Z"/>
    </symbol>
    <symbol id="icon-news-next-arrow" viewBox="0 0 64 8" fill="none" xmlns="http://www.w3.org/2000/svg">
        <path d="M63.3536 4.03519C63.5488 3.83993 63.5488 3.52335 63.3536 3.32809L60.1716 0.146107C59.9763 -0.0491555 59.6597 -0.0491555 59.4645 0.146107C59.2692 0.341369 59.2692 0.657951 59.4645 0.853214L62.2929 3.68164L59.4645 6.51007C59.2692 6.70533 59.2692 7.02191 59.4645 7.21717C59.6597 7.41244 59.9763 7.41244 60.1716 7.21717L63.3536 4.03519ZM0 3.68164V4.18164H63V3.68164V3.18164H0V3.68164Z"/>
    </symbol>
</svg>
